<?xml version="1.0" encoding="utf-8"?>
<!-- Generator: Adobe Illustrator 24.3.0, SVG Export Plug-In . SVG Version: 6.00 Build 0)  -->
<svg version="1.1" id="logo" xmlns="http://www.w3.org/2000/svg" xmlns:xlink="http://www.w3.org/1999/xlink" x="0px" y="0px"
	 viewBox="0 0 703.4 193.6" style="enable-background:new 0 0 703.4 193.6;" xml:space="preserve">
<style type="text/css">
	.st0{fill:url(#SVGID_1_);}
	.st1{fill:url(#SVGID_2_);}
	.st2{fill:url(#v_1_);}
	.st3{fill:url(#SVGID_3_);}
	.st4{fill:url(#SVGID_4_);}
	.st5{fill:url(#SVGID_5_);}
	.st6{fill:url(#SVGID_6_);}
	.st7{fill:url(#SVGID_7_);}
	.st8{fill:url(#SVGID_8_);}
	.st9{fill:url(#SVGID_9_);}
</style>
<g id="evekayser">
	<linearGradient id="SVGID_1_" gradientUnits="userSpaceOnUse" x1="0" y1="112.5592" x2="703.4219" y2="112.5592">
		<stop  offset="0" style="stop-color:#EE3060"/>
		<stop  offset="0.1709" style="stop-color:#EE345E"/>
		<stop  offset="0.3314" style="stop-color:#EE3F59"/>
		<stop  offset="0.4878" style="stop-color:#EF5251"/>
		<stop  offset="0.6416" style="stop-color:#F06D45"/>
		<stop  offset="0.7937" style="stop-color:#F08F36"/>
		<stop  offset="0.9423" style="stop-color:#F2B923"/>
		<stop  offset="1" style="stop-color:#F2CB1B"/>
	</linearGradient>
	<path class="st0" d="M72.7,139c-2,4-4.7,7.5-7.9,10.3c-3.2,2.8-6.9,5-11.2,6.5s-8.9,2.3-13.9,2.3c-6.2,0-11.7-1.2-16.7-3.5
		c-5-2.3-9.1-5.5-12.5-9.4c-3.4-4-6-8.7-7.8-14c-1.8-5.3-2.7-11-2.7-17.1c0-6.4,0.9-12.5,2.7-18.2s4.4-10.7,7.9-15
		c3.4-4.3,7.7-7.6,12.9-10.1c5.1-2.5,11.1-3.7,17.8-3.7c4.5,0,8.8,0.7,12.9,2c4.1,1.3,7.7,3.3,10.8,5.9c3.1,2.6,5.7,5.7,7.8,9.4
		c2,3.7,3.3,8,3.9,12.8l-65.5,24.3c0.4,3.9,1.4,7.6,2.9,11s3.4,6.3,5.8,8.9c2.4,2.5,5.2,4.5,8.6,6c3.4,1.5,7.2,2.2,11.5,2.2
		c3.6,0,7-0.6,10.1-1.8c3.1-1.2,5.8-2.8,8.1-4.9c2.3-2.1,4.2-4.6,5.6-7.6c1.4-3,2.3-6.3,2.6-10h10.3C76,130.4,74.7,135,72.7,139z
		 M56.8,80.4c-4.2-3.2-9.4-4.8-15.5-4.8c-5.3,0-9.8,1-13.6,3c-3.8,2-6.9,4.6-9.4,7.9c-2.5,3.3-4.3,7.1-5.5,11.5
		c-1.2,4.3-1.9,8.9-2,13.7v2.5l54.6-20.4C63.9,88.1,61,83.6,56.8,80.4z"/>
	<linearGradient id="SVGID_2_" gradientUnits="userSpaceOnUse" x1="0" y1="112.4083" x2="703.4219" y2="112.4083">
		<stop  offset="0" style="stop-color:#EE3060"/>
		<stop  offset="0.1709" style="stop-color:#EE345E"/>
		<stop  offset="0.3314" style="stop-color:#EE3F59"/>
		<stop  offset="0.4878" style="stop-color:#EF5251"/>
		<stop  offset="0.6416" style="stop-color:#F06D45"/>
		<stop  offset="0.7937" style="stop-color:#F08F36"/>
		<stop  offset="0.9423" style="stop-color:#F2B923"/>
		<stop  offset="1" style="stop-color:#F2CB1B"/>
	</linearGradient>
	<path class="st1" d="M124.3,156.1h-11.4L82.8,69.2l9.6-0.5l26.3,69.9l24.5-69.5h11.2L124.3,156.1z"/>
	<linearGradient id="v_1_" gradientUnits="userSpaceOnUse" x1="-85.459" y1="77.2614" x2="953.3033" y2="77.2614">
		<stop  offset="0" style="stop-color:#EE3060"/>
		<stop  offset="0.1709" style="stop-color:#EE345E"/>
		<stop  offset="0.3314" style="stop-color:#EE3F59"/>
		<stop  offset="0.4878" style="stop-color:#EF5251"/>
		<stop  offset="0.6416" style="stop-color:#F06D45"/>
		<stop  offset="0.7937" style="stop-color:#F08F36"/>
		<stop  offset="0.9423" style="stop-color:#F2B923"/>
		<stop  offset="1" style="stop-color:#F2CB1B"/>
	</linearGradient>
	<path id="v" class="st2" d="M103.2,91.8L103,91C80,34.7,49.4,8.5,37.9,0.1C37.3-0.3,36.5,0.5,37,1c44,48.2,71.2,138.7,75.4,153
		c0.2,0.6,1,0.6,1.2,0l4.9-14.9c0-0.1,0-0.3,0-0.4l-10.4-31.9c-0.1-0.2,0-0.5,0.2-0.6C118.6,95.9,135,95.9,137.6,96
		c0.2,0,0.4-0.1,0.5-0.3l4.3-7c0.2-0.4,0-0.8-0.4-0.9C129.9,85.1,112.8,89.8,103.2,91.8z"/>
	<linearGradient id="SVGID_3_" gradientUnits="userSpaceOnUse" x1="0" y1="112.5592" x2="703.4219" y2="112.5592">
		<stop  offset="0" style="stop-color:#EE3060"/>
		<stop  offset="0.1709" style="stop-color:#EE345E"/>
		<stop  offset="0.3314" style="stop-color:#EE3F59"/>
		<stop  offset="0.4878" style="stop-color:#EF5251"/>
		<stop  offset="0.6416" style="stop-color:#F06D45"/>
		<stop  offset="0.7937" style="stop-color:#F08F36"/>
		<stop  offset="0.9423" style="stop-color:#F2B923"/>
		<stop  offset="1" style="stop-color:#F2CB1B"/>
	</linearGradient>
	<path class="st3" d="M233.2,139c-2,4-4.7,7.5-7.9,10.3c-3.2,2.8-6.9,5-11.2,6.5s-8.9,2.3-13.9,2.3c-6.2,0-11.7-1.2-16.7-3.5
		c-5-2.3-9.1-5.5-12.5-9.4c-3.4-4-6-8.7-7.8-14c-1.8-5.3-2.7-11-2.7-17.1c0-6.4,0.9-12.5,2.7-18.2s4.4-10.7,7.9-15
		c3.4-4.3,7.7-7.6,12.9-10.1c5.1-2.5,11.1-3.7,17.8-3.7c4.5,0,8.8,0.7,12.9,2c4.1,1.3,7.7,3.3,10.8,5.9c3.1,2.6,5.7,5.7,7.8,9.4
		c2,3.7,3.3,8,3.9,12.8l-65.5,24.3c0.4,3.9,1.4,7.6,2.9,11s3.4,6.3,5.8,8.9c2.4,2.5,5.2,4.5,8.6,6c3.4,1.5,7.2,2.2,11.5,2.2
		c3.6,0,7-0.6,10.1-1.8c3.1-1.2,5.8-2.8,8.1-4.9c2.3-2.1,4.2-4.6,5.6-7.6c1.4-3,2.3-6.3,2.6-10h10.3
		C236.6,130.4,235.3,135,233.2,139z M217.4,80.4c-4.2-3.2-9.4-4.8-15.5-4.8c-5.3,0-9.8,1-13.6,3c-3.8,2-6.9,4.6-9.4,7.9
		c-2.5,3.3-4.3,7.1-5.5,11.5c-1.2,4.3-1.9,8.9-2,13.7v2.5l54.6-20.4C224.4,88.1,221.6,83.6,217.4,80.4z"/>
	<linearGradient id="SVGID_4_" gradientUnits="userSpaceOnUse" x1="0" y1="95.3649" x2="703.4219" y2="95.3649">
		<stop  offset="0" style="stop-color:#EE3060"/>
		<stop  offset="0.1709" style="stop-color:#EE345E"/>
		<stop  offset="0.3314" style="stop-color:#EE3F59"/>
		<stop  offset="0.4878" style="stop-color:#EF5251"/>
		<stop  offset="0.6416" style="stop-color:#F06D45"/>
		<stop  offset="0.7937" style="stop-color:#F08F36"/>
		<stop  offset="0.9423" style="stop-color:#F2B923"/>
		<stop  offset="1" style="stop-color:#F2CB1B"/>
	</linearGradient>
	<path class="st4" d="M288.4,156.1l-25.3-34.6v34.6h-10.7V34.7h10.6v69.1l25.5-34.6h11.9L269,112.6l31.3,43.5H288.4z"/>
	<linearGradient id="SVGID_5_" gradientUnits="userSpaceOnUse" x1="0" y1="112.5592" x2="703.4219" y2="112.5592">
		<stop  offset="0" style="stop-color:#EE3060"/>
		<stop  offset="0.1709" style="stop-color:#EE345E"/>
		<stop  offset="0.3314" style="stop-color:#EE3F59"/>
		<stop  offset="0.4878" style="stop-color:#EF5251"/>
		<stop  offset="0.6416" style="stop-color:#F06D45"/>
		<stop  offset="0.7937" style="stop-color:#F08F36"/>
		<stop  offset="0.9423" style="stop-color:#F2B923"/>
		<stop  offset="1" style="stop-color:#F2CB1B"/>
	</linearGradient>
	<path class="st5" d="M375.9,156.1v-13.5c-3,4.9-7,8.8-12.1,11.5c-5.1,2.7-10.9,4-17.5,4c-6.2,0-11.7-1.1-16.6-3.4
		c-4.9-2.2-9.1-5.4-12.5-9.4c-3.4-4-6.1-8.7-7.9-14c-1.9-5.3-2.8-11.1-2.8-17.3c0-6.4,0.9-12.5,2.6-18.2c1.8-5.7,4.4-10.7,7.9-15
		c3.5-4.3,7.8-7.6,13-10.1c5.2-2.5,11.1-3.7,17.9-3.7c5.7,0,11.1,1.2,16.1,3.5c5,2.4,9,5.9,11.8,10.6v-12h10.7v86.8H375.9z
		 M375.9,97.2c0-3-0.8-5.9-2.4-8.5c-1.6-2.6-3.7-4.9-6.3-6.8c-2.6-1.9-5.5-3.4-8.6-4.6c-3.1-1.1-6.2-1.7-9.2-1.7
		c-6,0-11,1.1-15.1,3.4c-4.1,2.2-7.5,5.2-10,8.8c-2.5,3.6-4.4,7.7-5.5,12.3c-1.1,4.6-1.7,9.3-1.7,14c0,4.8,0.6,9.4,1.9,13.7
		c1.3,4.3,3.2,8.1,5.8,11.3c2.6,3.2,5.8,5.7,9.6,7.6c3.8,1.9,8.3,2.8,13.5,2.8c3.5,0,7-0.6,10.3-1.7c3.4-1.1,6.3-2.7,8.9-4.8
		c2.6-2.1,4.7-4.6,6.3-7.6c1.6-3,2.4-6.4,2.4-10.2V97.2z"/>
	<linearGradient id="SVGID_6_" gradientUnits="userSpaceOnUse" x1="0" y1="131.4396" x2="703.4219" y2="131.4396">
		<stop  offset="0" style="stop-color:#EE3060"/>
		<stop  offset="0.1709" style="stop-color:#EE345E"/>
		<stop  offset="0.3314" style="stop-color:#EE3F59"/>
		<stop  offset="0.4878" style="stop-color:#EF5251"/>
		<stop  offset="0.6416" style="stop-color:#F06D45"/>
		<stop  offset="0.7937" style="stop-color:#F08F36"/>
		<stop  offset="0.9423" style="stop-color:#F2B923"/>
		<stop  offset="1" style="stop-color:#F2CB1B"/>
	</linearGradient>
	<path class="st6" d="M475.1,157.1c0,5.5-0.7,10.5-2.1,15c-1.4,4.5-3.7,8.3-6.7,11.5c-3,3.2-6.9,5.7-11.7,7.4
		c-4.8,1.7-10.5,2.6-17.1,2.6c-4.5,0-8.8-0.5-13-1.4c-4.1-1-7.8-2.5-11.1-4.7c-3.3-2.2-5.9-5.1-7.9-8.6c-2-3.5-3.2-7.9-3.6-13.1
		h10.6c0.2,3.5,1,6.5,2.4,9.1c1.4,2.6,3.2,4.7,5.5,6.4c2.3,1.7,4.8,2.9,7.6,3.7c2.8,0.8,5.8,1.2,9,1.2c9,0,15.9-2.5,20.5-7.5
		c4.6-5,6.9-12,6.9-21v-20.1c-2.3,6.9-6.1,12-11.3,15.3c-5.2,3.4-11.4,5.1-18.6,5.1c-9.4,0-16.7-2.8-22.1-8.3c-5.3-5.5-8-13-8-22.4
		V69.2H415v54.1c0,7.6,1.9,13.8,5.6,18.5c3.7,4.7,9.5,7.1,17.3,7.1c4.4,0,8.2-0.9,11.5-2.6c3.3-1.7,6-4,8.2-6.9
		c2.2-2.9,3.8-6.2,4.9-9.9c1.1-3.8,1.6-7.7,1.6-11.9V69.2h10.7v88V157.1z"/>
	<linearGradient id="SVGID_7_" gradientUnits="userSpaceOnUse" x1="0" y1="112.5592" x2="703.4219" y2="112.5592">
		<stop  offset="0" style="stop-color:#EE3060"/>
		<stop  offset="0.1709" style="stop-color:#EE345E"/>
		<stop  offset="0.3314" style="stop-color:#EE3F59"/>
		<stop  offset="0.4878" style="stop-color:#EF5251"/>
		<stop  offset="0.6416" style="stop-color:#F06D45"/>
		<stop  offset="0.7937" style="stop-color:#F08F36"/>
		<stop  offset="0.9423" style="stop-color:#F2B923"/>
		<stop  offset="1" style="stop-color:#F2CB1B"/>
	</linearGradient>
	<path class="st7" d="M557.6,132.3c0,4.7-1,8.7-3.1,12.1c-2,3.3-4.7,6-7.9,8c-3.2,2-6.8,3.5-10.8,4.4c-4,0.9-8.1,1.3-12.2,1.3
		c-5.5,0-10.5-0.6-15-1.9s-8.3-3.1-11.5-5.6c-3.2-2.5-5.7-5.8-7.4-9.8c-1.8-4-2.6-8.7-2.6-14.2h10.3c0.1,8.2,2.5,14.2,7.2,18.1
		c4.7,3.9,11.1,5.8,19.3,5.8c2.6,0,5.3-0.3,8.1-0.9c2.8-0.6,5.3-1.6,7.5-3c2.3-1.3,4.1-3.1,5.6-5.2c1.5-2.1,2.2-4.8,2.2-7.9
		c0-3.1-0.7-5.7-2.1-7.8c-1.4-2-3.3-3.7-5.6-5c-2.4-1.3-5.2-2.3-8.4-3.1c-3.3-0.8-6.7-1.6-10.3-2.5c-4.2-1-8.2-2-11.9-3
		c-3.7-1-7-2.4-9.8-4.1c-2.8-1.7-5-4-6.6-6.7c-1.6-2.8-2.4-6.3-2.4-10.7c0-3.1,0.7-6.2,2.1-9c1.4-2.9,3.5-5.4,6.2-7.5
		c2.7-2.1,6-3.8,9.9-5.1c3.9-1.2,8.4-1.9,13.5-1.9c4.6,0,9,0.5,13.1,1.5c4.1,1,7.6,2.6,10.6,4.9c3,2.2,5.3,5.1,7.1,8.6
		c1.8,3.5,2.6,7.8,2.6,12.8h-9.9c0-7.2-2.2-12.4-6.6-15.7c-4.4-3.3-10-4.9-16.7-4.9c-4.7,0-8.5,0.6-11.4,1.9c-2.9,1.3-5,2.8-6.5,4.5
		c-1.5,1.7-2.5,3.4-3,5.1c-0.5,1.7-0.7,3.1-0.7,4c0,3.7,1.1,6.6,3.4,8.8c2.3,2.1,5,3.8,8.3,5.1c3.2,1.2,6.7,2.2,10.3,2.9
		c3.6,0.7,6.8,1.4,9.6,2.2c3.1,0.9,6.2,1.9,9.3,2.9c3.1,1.1,5.8,2.5,8.3,4.2c2.4,1.7,4.4,3.9,5.9,6.5
		C556.8,124.9,557.6,128.2,557.6,132.3z"/>
	<linearGradient id="SVGID_8_" gradientUnits="userSpaceOnUse" x1="0" y1="112.5592" x2="703.4219" y2="112.5592">
		<stop  offset="0" style="stop-color:#EE3060"/>
		<stop  offset="0.1709" style="stop-color:#EE345E"/>
		<stop  offset="0.3314" style="stop-color:#EE3F59"/>
		<stop  offset="0.4878" style="stop-color:#EF5251"/>
		<stop  offset="0.6416" style="stop-color:#F06D45"/>
		<stop  offset="0.7937" style="stop-color:#F08F36"/>
		<stop  offset="0.9423" style="stop-color:#F2B923"/>
		<stop  offset="1" style="stop-color:#F2CB1B"/>
	</linearGradient>
	<path class="st8" d="M640.2,139c-2,4-4.7,7.5-7.9,10.3c-3.2,2.8-6.9,5-11.2,6.5c-4.3,1.5-8.9,2.3-13.9,2.3
		c-6.2,0-11.7-1.2-16.7-3.5c-5-2.3-9.1-5.5-12.5-9.4c-3.4-4-6-8.7-7.8-14c-1.8-5.3-2.7-11-2.7-17.1c0-6.4,0.9-12.5,2.7-18.2
		c1.8-5.7,4.4-10.7,7.9-15c3.4-4.3,7.7-7.6,12.9-10.1c5.1-2.5,11-3.7,17.8-3.7c4.5,0,8.8,0.7,12.9,2c4.1,1.3,7.7,3.3,10.8,5.9
		c3.1,2.6,5.7,5.7,7.8,9.4c2,3.7,3.3,8,3.9,12.8l-65.5,24.3c0.4,3.9,1.4,7.6,2.9,11s3.4,6.3,5.8,8.9c2.4,2.5,5.2,4.5,8.6,6
		c3.4,1.5,7.2,2.2,11.5,2.2c3.6,0,7-0.6,10.1-1.8c3.1-1.2,5.8-2.8,8.1-4.9c2.3-2.1,4.2-4.6,5.6-7.6c1.4-3,2.3-6.3,2.6-10h10.3
		C643.5,130.4,642.2,135,640.2,139z M624.3,80.4c-4.2-3.2-9.4-4.8-15.5-4.8c-5.3,0-9.8,1-13.6,3c-3.8,2-6.9,4.6-9.4,7.9
		c-2.5,3.3-4.3,7.1-5.5,11.5c-1.2,4.3-1.9,8.9-2,13.7v2.5l54.6-20.4C631.4,88.1,628.5,83.6,624.3,80.4z"/>
	<linearGradient id="SVGID_9_" gradientUnits="userSpaceOnUse" x1="0" y1="111.6324" x2="703.4219" y2="111.6324">
		<stop  offset="0" style="stop-color:#EE3060"/>
		<stop  offset="0.1709" style="stop-color:#EE345E"/>
		<stop  offset="0.3314" style="stop-color:#EE3F59"/>
		<stop  offset="0.4878" style="stop-color:#EF5251"/>
		<stop  offset="0.6416" style="stop-color:#F06D45"/>
		<stop  offset="0.7937" style="stop-color:#F08F36"/>
		<stop  offset="0.9423" style="stop-color:#F2B923"/>
		<stop  offset="1" style="stop-color:#F2CB1B"/>
	</linearGradient>
	<path class="st9" d="M696.5,76.3c-4.5,0-8.4,0.9-11.7,2.6c-3.3,1.7-6,4-8.2,6.9c-2.1,2.9-3.8,6.2-4.9,9.9
		c-1.1,3.8-1.7,7.7-1.7,11.9v48.4h-10.7V69.2h10.6v18.4c2.4-6.9,6.3-12,11.5-15.3c5.2-3.4,11.4-5.1,18.6-5.1c0.5,0,1.1,0,1.7,0
		c0.6,0,1.2,0.1,1.7,0.2L696.5,76.3z"/>
</g>
</svg>
