<?xml version="1.0" encoding="utf-8"?>
<!-- Generator: Adobe Illustrator 26.5.0, SVG Export Plug-In . SVG Version: 6.00 Build 0)  -->
<svg version="1.1" id="Layer_1" xmlns="http://www.w3.org/2000/svg" xmlns:xlink="http://www.w3.org/1999/xlink" x="0px" y="0px"
	 viewBox="0 0 747.3 102.9" style="enable-background:new 0 0 747.3 102.9;" xml:space="preserve">
<style type="text/css">
	.st0{fill-rule:evenodd;clip-rule:evenodd;}
</style>
<g id="HOME">
	<g id="HOME-1.0---DESKTOP---TAB-1" transform="translate(-995.000000, -4966.000000)">
		<g id="Group" transform="translate(0.000000, 4564.000000)">
			<g id="Footer_x2F_Desktop" transform="translate(0.000000, 133.000000)">
				<g id="Group-2" transform="translate(995.000000, 58.000000)">
					<g id="Group-4" transform="translate(0.000000, 172.000000)">
						<g id="Group-28" transform="translate(0.000000, 35.000000)">
							<g id="Logo-BB" transform="translate(0.000000, 4.000000)">
								<path id="Fill-23" class="st0" d="M0,88.6l10.9-7.1l10.9,7.1L0,102.9V88.6z M104.7,14.3l-10.9,7.1l-10.9-7.1L104.7,0V14.3z
									 M104.7,68.6l-52.4,34.3L0,68.6l62.2-40.7L73.1,35L22.9,67.9l30.5,20l14.2-9.3l-10.9-7.2l26.2-17.1L104.7,68.6z M0,34.3
									L52.3,0l52.4,34.3L42.5,75l-10.9-7.2L81.8,35L51.3,15l-14.2,9.3L48,31.4L21.8,48.6L0,34.3z"/>
								<path id="Fill-25" class="st0" d="M143.2,45.2V27.7h6.3c5.7,0,9.8,3.7,9.8,8.7c0,6.6-5.2,8.7-8.9,8.7h-5.9L143.2,45.2z
									 M146.7,55.7h2.2c8.5,0,11.2,3.7,11.2,9.8c0,9.6-8.1,9.7-11.7,9.7h-5.3V55.8L146.7,55.7z M246.2,85.7V48.3l15.9,37.4h17.1
									V29.6h-12.3v36.3l-15.5-36.3h-17.6v56.1H246.2z M306.8,87.3c12.6,0,20-4.9,20-20.2h-14.3c-0.2,4.5-0.2,11.7-5.6,11.7
									c-6.1,0-7-3.6-7-21c0-18,1.4-21,6.7-21c3.8,0,5.5,2.9,5.5,10.5h14.3c0.5-12.3-6.4-19-20.2-19c-20.5,0-21.1,12.8-21.1,29.6
									C285.1,74.6,284.5,87.3,306.8,87.3L306.8,87.3z M192.8,85.7l3.6-12.4h15.4l3.5,12.4h15.2l-17.1-56.1h-17.4l-17.5,56.1H192.8
									z M209.5,64.6h-11l5.3-23L209.5,64.6z M353.2,78.8c-6.5,0-7.3-6.3-7.3-21c0-14.7,0.8-21,7.3-21c6.5,0,7.4,6.3,7.4,21
									C360.6,72.4,359.7,78.8,353.2,78.8L353.2,78.8z M353.2,87.3c22.2,0,22.2-14.6,22.2-29.6c0-15.1,0-29.6-22.2-29.6
									C331,28.2,331,42.6,331,57.8C331,72.8,331,87.3,353.2,87.3L353.2,87.3z M692.7,85.7h14.5V29.6h-14.5V85.7z M747.3,85.7v-8.5
									h-16.9V29.6h-14.5v56.1H747.3z M527.7,85.7c6.9,0,23.8-0.8,23.8-18.1c0-9.4-3-16-14.4-17.4c8.8-1.7,13.1-7.4,13.1-15.3
									c0-14.6-10.2-17.8-22.4-17.8h-28.7v68.5H527.7z M516.7,45.3V27.8h8.5c4.7,0,8,3.7,8,8.7c0,6.6-4.2,8.7-7.2,8.7h-4.8
									L516.7,45.3z M521.1,55.8h3.6c6.9,0,9.1,3.7,9.1,9.8c0,9.6-6.6,9.7-9.5,9.7h-7.7V55.9L521.1,55.8z M405.7,38.2h5.9
									c7.9,0,7.9,9.1,7.9,19.5c0,14.1-1.4,19.5-8.3,19.5h-5.5V38.2z M391.3,85.7H413c22.8,0,21.3-19.8,21.3-28.5
									c0-17.5-3.3-27.8-20.7-27.8h-22.2V85.7z M461.9,78.8c-6.5,0-7.3-6.3-7.3-20.9c0-14.6,0.8-20.9,7.3-20.9
									c6.5,0,7.3,6.3,7.3,20.9C469.2,72.5,468.4,78.8,461.9,78.8L461.9,78.8z M461.9,87.3c22.2,0,22.2-14.5,22.2-29.4
									c0-15.1,0-29.4-22.2-29.4c-22.2,0-22.2,14.4-22.2,29.4C439.6,72.8,439.6,87.3,461.9,87.3L461.9,87.3z M627.7,64.7h-11
									l5.3-23L627.7,64.7z M668.1,85.7c9.6,0,19.2-1.3,19.2-15.8c0-16.8-24.7-15.1-24.7-25.7c0-3.9,2.4-6,6.5-6h13.2v-8.6h-18.6
									c-15.3,0-19.1,6.8-19.1,15.6c0,16.7,27.4,16.3,27.4,25.7c0,3.8-2.1,6.4-6.3,6.4h-19.6l-14.6-47.6h-17.4l-16.1,51.1l-10.1-22
									c7.4-1.4,10.4-6,10.4-14.4c0-9.6-5.8-14.7-14.8-14.7h-27.2v56.1h14.9V38.2h4.9c4.2,0,7.9,3,7.9,8.5c0,4.7-2.4,8.5-6.2,8.3
									l-4.1,0.1l13.6,30.6H611l3.6-12.4H630l3.5,12.4L668.1,85.7z M154.2,85.7c6.8,0,23.8-0.8,23.8-18.1c0-9.4-3-16-14.4-17.4
									c8.8-1.7,13.2-7.4,13.2-15.3c0-14.6-10.2-17.8-22.5-17.8h-28.7v68.5H154.2z"/>
							</g>
						</g>
					</g>
				</g>
			</g>
		</g>
	</g>
</g>
</svg>
