<?xml version="1.0" encoding="utf-8"?>
<!-- Generator: Adobe Illustrator 26.5.0, SVG Export Plug-In . SVG Version: 6.00 Build 0)  -->
<svg version="1.1" id="Layer_1" xmlns="http://www.w3.org/2000/svg" xmlns:xlink="http://www.w3.org/1999/xlink" x="0px" y="0px"
	 viewBox="0 0 414 62.4" style="enable-background:new 0 0 414 62.4;" xml:space="preserve">
<g id="Layer_2_00000126302102580826366110000000752481440074055065_">
	<g id="Layer_1-2">
		<path d="M110.9,53.8c-8.3,0-15.9-4.7-19.7-12c-1,3.2-2.4,6.2-4.3,9c5.8,7.3,14.7,11.6,24,11.6c2.4-0.1,4.2-2.1,4.1-4.5
			C114.9,55.7,113.1,53.9,110.9,53.8 M89.8,23.7c0.4-1.1,0.8-2.1,1.4-3.1c3.8-7.4,11.4-12,19.7-12c2.4-0.1,4.2-2.1,4.1-4.5
			c-0.1-2.2-1.9-4-4.1-4.1c-9.3,0-18.2,4.3-24,11.6c-0.5,0.6-0.9,1.2-1.4,1.8s-0.9,1.3-1.3,2C81.5,20.2,80,25.7,80,31.2
			c0,3.7-0.9,7.4-2.7,10.6C71.6,52.8,58.2,57,47.3,51.3c-4-2.1-7.3-5.4-9.4-9.4c-1,3.2-2.4,6.2-4.3,9c10.6,13.3,29.9,15.4,43.2,4.8
			c1.8-1.4,3.4-3.1,4.8-4.8c0.5-0.6,0.9-1.2,1.4-1.8s0.9-1.3,1.3-2c2.8-4.8,4.3-10.2,4.3-15.8C88.5,28.7,88.9,26.1,89.8,23.7
			 M4.3,8.6c8.3,0,15.9,4.6,19.7,12c1-3.2,2.4-6.2,4.3-9C22.4,4.3,13.6,0,4.3,0C1.9,0.1,0.1,2.1,0.2,4.5C0.3,6.7,2.1,8.5,4.3,8.6
			 M36.5,23.7c0.4-1.1,0.8-2.1,1.4-3.1C43.5,9.7,57,5.4,67.9,11.1c4,2.1,7.3,5.4,9.4,9.4c1-3.2,2.4-6.2,4.3-9
			C71-1.7,51.7-3.9,38.5,6.7c-1.8,1.4-3.4,3.1-4.9,4.9c-0.5,0.6-0.9,1.2-1.4,1.8s-0.9,1.3-1.3,2c-2.8,4.8-4.3,10.2-4.3,15.8
			c0,2.6-0.4,5.1-1.3,7.5c-0.4,1.1-0.9,2.1-1.4,3.2c-3.9,7.3-11.4,12-19.7,12C1.9,54,0,56,0.2,58.4c0.1,2.2,1.9,4,4.1,4.1
			c9.3,0,18.2-4.3,24-11.6c0.5-0.6,0.9-1.2,1.4-1.8s0.9-1.3,1.3-2c2.8-4.8,4.3-10.2,4.3-15.8C35.2,28.7,35.6,26.2,36.5,23.7"/>
		<path d="M371,55.3c0,0.8,0.6,1.4,1.4,1.4h6.6c0.8,0,1.4-0.6,1.4-1.4c0,0,0,0,0,0V24h0.1l30.5,33.5h1.8c0.7,0,1.3-0.6,1.3-1.3v-49
			c0-0.8-0.6-1.4-1.4-1.4h-6.7c-0.8,0-1.4,0.6-1.4,1.4c0,0,0,0,0,0v30.1h-0.1L374.2,5h-1.8c-0.7,0-1.3,0.6-1.3,1.3V55.3z M323,55.3
			c0,0.8,0.6,1.4,1.4,1.4l0,0H354c0.8,0,1.4-0.6,1.4-1.4c0,0,0,0,0,0v-6c0-0.7-0.6-1.3-1.4-1.3h-21.5V35.2h18c0.8,0,1.4-0.6,1.4-1.4
			c0,0,0,0,0,0v-6c0-0.7-0.6-1.3-1.4-1.4h-18v-12H354c0.8,0,1.4-0.6,1.4-1.4c0,0,0,0,0,0V7c0-0.7-0.6-1.3-1.4-1.3h-29.6
			c-0.8,0-1.4,0.6-1.4,1.4c0,0,0,0,0,0L323,55.3z M287,56.7c0.2,0.5,0.7,0.8,1.2,0.8h0.7c0.5,0,1-0.3,1.2-0.8l22.6-49
			c0.3-0.6,0.1-1.4-0.5-1.7c-0.2-0.1-0.5-0.2-0.7-0.2H304c-0.5,0-1,0.3-1.2,0.8l-14,31.3h-0.5l-14-31.3c-0.2-0.5-0.7-0.8-1.2-0.8
			h-7.4c-0.7-0.1-1.3,0.5-1.4,1.2c0,0.2,0,0.5,0.2,0.7L287,56.7z M234.4,39.3l7.1-16h0.2l7.3,16H234.4z M218.8,56.7h6.3
			c0.9,0,1.8-0.6,2.1-1.5l3.6-7.9h21.8l3.6,7.9c0.3,0.9,1.2,1.5,2.1,1.5h6.3c0.7,0.1,1.3-0.5,1.4-1.2c0-0.3,0-0.5-0.2-0.7l-22.4-49
			c-0.2-0.5-0.7-0.8-1.2-0.8h-0.7c-0.5,0-1,0.3-1.2,0.8l-22.7,49c-0.3,0.6-0.1,1.4,0.5,1.7C218.3,56.7,218.5,56.7,218.8,56.7
			 M149.2,55.1c-0.2,0.7,0.2,1.4,0.9,1.6c0.1,0,0.3,0.1,0.4,0h6.6c0.6,0,1.2-0.5,1.3-1.1l4.2-27.6h0.2l12.9,28.6
			c0.2,0.5,0.7,0.8,1.2,0.8h1.3c0.5,0,1-0.3,1.2-0.8L192.3,28h0.2l4.3,27.6c0.2,0.6,0.7,1,1.4,1.1h6.6c0.7,0.1,1.3-0.4,1.4-1.1
			c0-0.2,0-0.4-0.1-0.5l-8.6-49c-0.1-0.6-0.7-1.1-1.3-1h-1.2c-0.5,0-1,0.2-1.2,0.7l-16,34.4h-0.2l-16-34.4c-0.2-0.5-0.8-0.8-1.3-0.7
			h-1.2c-0.7,0-1.2,0.4-1.3,1.1L149.2,55.1z"/>
	</g>
</g>
</svg>
