<?xml version="1.0" encoding="utf-8"?>
<!-- Generator: Adobe Illustrator 26.5.0, SVG Export Plug-In . SVG Version: 6.00 Build 0)  -->
<svg version="1.1" id="Layer_1" xmlns="http://www.w3.org/2000/svg" xmlns:xlink="http://www.w3.org/1999/xlink" x="0px" y="0px"
	 viewBox="0 0 763.4 422.8" style="enable-background:new 0 0 763.4 422.8;" xml:space="preserve">
<path d="M81.9,118.3l572.9-47.5c19,7.3,38.6,20.3,53.1,30.2c-14.1,11.9-29.7,25.2-49.2,35.9L74.4,154
	C84.4,140.3,87.2,133.2,81.9,118.3 M138.4,176.5c16.4-0.5,32.8-0.9,49.1-1.4c4.5-0.1,2.7-0.1,2.1,4c-1.9,3.3-3.8,6.5-5.8,9.8
	c57.5,39.2,172,47.3,199,10.5c7.5-9.5,10.8-19.7,11.4-30.1c70.3-2,140.5-3.9,210.8-5.9c-17,17.6-46,34.4-82,47.9
	c-36,13.5-79.2,23.7-124.5,28.2c-45.4,4.4-93,3.1-138-6.6C215.6,223.3,173.2,205.3,138.4,176.5 M133,90.4c16.3-1.3,32.7-2.6,49-3.9
	c4.5-0.4,2.6-0.2,1.6-4.2c-2.3-3-4.5-6.1-6.8-9.1c52.8-45.1,165.7-65.4,196.6-31.7c8.6,8.7,12.9,18.4,14.7,28.7
	c70.1-5.6,140.1-11.1,210.2-16.6c-18.9-15.6-49.5-29.3-86.9-38.8C474.2,5.2,430.2-0.4,384.6,0C339,0.4,291.8,6.9,248.2,21.3
	C204.6,35.7,164.5,58.1,133,90.4"/>
<path d="M385.2,344.1l-2.1,7.6l-38.4,1.7l3.8-13.5c2.1-6.7-2.1-7.3-6.7-7.3c-3.9,0-7.3,0.1-9.1,5.1l-23.2,83.1h-37.9l27.9-99.9l53,0
	C374.9,320.6,392.2,318.5,385.2,344.1 M664.6,349.3h37.9l-19.9,71.5h-37.9L664.6,349.3z M725.6,320.9h37.9l-4.6,16.8h-37.9
	L725.6,320.9z M672.6,320.9h37.9l-4.6,16.8h-37.9L672.6,320.9z M717.6,349.3h37.9l-19.9,71.5h-37.9L717.6,349.3z M607,364.8
	c-13.9,2.6-20.2,2.2-22.4,10.4l-7.2,25.9c-2.4,8.2,1.1,8.9,7,8.7c6.9-0.1,10.4-1.2,12.9-10L607,364.8z M652,340l-22.5,80.8
	l-49.5,1.1c-24.3,0.6-42.8-0.1-37.5-21.9c0.1-0.5,6.8-24.5,7-25.1c5.4-15.1,33.4-18,61-23l3.5-12.3c1.8-6.7-2.5-6.8-7.1-6.7
	c-7.4,0-8.1,1.2-10.7,9l-34.7,1.6l1.7-6.1c4.4-15.9,31.3-18.2,47.1-18.1C629.3,319.3,656.5,323,652,340 M167.5,343.5L146,420.8
	h-37.9l21.1-75.8c1.7-6.1-2.2-7.3-6.5-7.3c-4.3,0-8,1.1-9.6,6.9l-21.3,76.2H54.5l21.1-76.2c1.7-5.5-2.4-6.9-6.5-6.9
	c-5.4,0-8.6,1.8-10.1,7.3l-20.9,75.7H0l21.6-77.4c4.1-14.8,20.7-24.3,45.7-24.1c19.4,0.2,26,7.1,29.4,13.4
	c6.2-6.9,21.8-13.2,37.8-13.1C153.2,319.7,173.5,322.2,167.5,343.5 M543.1,343.5l-21.5,77.3h-37.9l21.1-75.8
	c1.7-6.1-2.2-7.3-6.5-7.3c-4.3,0-8,1.1-9.6,6.9l-21.2,76.2H430l21.1-76.2c1.7-5.5-2.4-6.9-6.5-6.9c-5.4,0-8.6,1.8-10.1,7.3
	l-20.9,75.7h-38.1l21.6-77.4c4.1-14.8,20.7-24.3,45.7-24.1c19.4,0.2,26,7.1,29.4,13.4c6.2-6.9,21.8-13.2,37.8-13.1
	C528.8,319.7,549,322.2,543.1,343.5 M221.9,340.2l-17.3,61c-1.8,6.4,3.4,7.4,7.9,7.4c4.4,0,9.3-1,11-7.3l17-61.1
	c2-6.4-1.8-7.7-6.2-7.7C229.9,332.5,223.7,333.9,221.9,340.2 M183.9,339.7c3.9-13.4,29.1-20,51.9-20.3c24.2-0.4,46.7,6.3,42.7,20.7
	l-17.9,64.4c-3.9,13.7-28.7,18.3-52.1,18.2c-13.9,0-27.6-1.8-35.6-6.1c-7-3.8-8-8.4-6-15.5L183.9,339.7z"/>
</svg>
