<?xml version="1.0" encoding="utf-8"?>
<!-- Generator: Adobe Illustrator 27.1.1, SVG Export Plug-In . SVG Version: 6.00 Build 0)  -->
<svg version="1.1" id="Layer_1" xmlns="http://www.w3.org/2000/svg" xmlns:xlink="http://www.w3.org/1999/xlink" x="0px" y="0px"
	 viewBox="0 0 120 50.6" style="enable-background:new 0 0 120 50.6;" xml:space="preserve">
<style type="text/css">
	.st0{fill:#0ACF83;}
	.st1{fill:#A259FF;}
	.st2{fill:#F24E1E;}
	.st3{fill:#FF7262;}
	.st4{fill:#1ABCFE;}
</style>
<path class="st0" d="M20.3,42c3.1,0,5.7-2.5,5.7-5.7v-5.7h-5.7c-3.1,0-5.7,2.5-5.7,5.7C14.6,39.4,17.1,42,20.3,42z"/>
<path class="st1" d="M14.6,25c0-3.1,2.5-5.7,5.7-5.7h5.7v11.3h-5.7C17.1,30.7,14.6,28.1,14.6,25L14.6,25z"/>
<path class="st2" d="M14.6,13.7c0-3.1,2.5-5.7,5.7-5.7h5.7v11.3h-5.7C17.1,19.3,14.6,16.8,14.6,13.7L14.6,13.7z"/>
<path class="st3" d="M25.9,8h5.7c3.1,0,5.7,2.5,5.7,5.7s-2.5,5.7-5.7,5.7h-5.7V8z"/>
<path class="st4" d="M37.2,25c0,3.1-2.5,5.7-5.7,5.7s-5.7-2.5-5.7-5.7s2.5-5.7,5.7-5.7S37.2,21.9,37.2,25L37.2,25z"/>
<path d="M50.5,14.3V31h2.1v-8h5.2V21h-5.2v-4.6h6.7v-2.1H50.5z M63.2,17.7c0.8,0,1.4-0.6,1.4-1.4c0-0.8-0.6-1.3-1.4-1.3
	s-1.4,0.6-1.4,1.4c0,0.4,0.2,0.7,0.4,1c0.3,0.3,0.6,0.4,1,0.4L63.2,17.7z M62.1,19.8V31h2.1V19.8L62.1,19.8L62.1,19.8z M72.2,19.5
	c-2.8,0-4.8,2.5-4.8,5.3s2,5.2,4.8,5.2c1.2,0,2.3-0.5,3.2-1.3v1.5c0,0.9-0.4,1.7-1,2.4c-0.6,0.6-1.5,1-2.4,1c-0.7,0-1.3-0.2-1.9-0.6
	L69,34.8c2.6,1.6,6,0.9,7.6-1.7c0.6-0.9,0.9-1.9,0.9-3V19.8h-2.1v1C74.6,19.9,73.4,19.4,72.2,19.5L72.2,19.5z M69.5,24.7
	c-0.1-1.1,0.4-2.2,1.4-2.7c1-0.6,2.1-0.6,3.1,0c0.9,0.6,1.5,1.6,1.4,2.7c0.1,1.1-0.4,2.2-1.4,2.8c-1,0.6-2.1,0.6-3.1,0
	C70,26.9,69.4,25.8,69.5,24.7z"/>
<path d="M85.2,21.7c-1.3,0-2.3,1-2.3,2.3v7.1h-2.1V19.9h2.1v0.9c0.7-0.9,1.7-1.4,2.8-1.4c1.4,0,2.6,0.7,3.3,1.9
	c0.8-1.2,2-1.9,3.3-1.9c2.4,0,4,2,4,4.4V31h-2.1v-7.1c0.2-1.3-0.7-2.5-2-2.6c-0.5-0.1-1.1,0-1.6,0.3c-0.8,0.5-1.2,1.4-1,2.3V31h-2.1
	v-7.1C87.5,22.6,86.5,21.6,85.2,21.7L85.2,21.7z M107.7,21.1c-1-1-2.4-1.6-3.8-1.6c-3.2,0-5.4,2.7-5.4,5.8s2.2,5.8,5.4,5.8
	c1.4,0,2.8-0.6,3.8-1.6v1.3h2.1V19.7h-2.1V21.1z M100.7,25.4c-0.1-1.3,0.5-2.6,1.7-3.3c1.1-0.7,2.5-0.7,3.7,0c1.1,0.7,1.8,2,1.7,3.3
	c0.1,1.3-0.5,2.6-1.7,3.3s-2.5,0.7-3.7,0C101.2,28,100.6,26.7,100.7,25.4z"/>
</svg>
