<?xml version="1.0" encoding="utf-8"?>
<!-- Generator: Adobe Illustrator 27.1.1, SVG Export Plug-In . SVG Version: 6.00 Build 0)  -->
<svg version="1.1" id="Layer_1" xmlns="http://www.w3.org/2000/svg" xmlns:xlink="http://www.w3.org/1999/xlink" x="0px" y="0px"
	 viewBox="0 0 628.1 125.1" style="enable-background:new 0 0 628.1 125.1;" xml:space="preserve">
<style type="text/css">
	.st0{fill:#2D40EA;}
	.st1{fill:#000111;}
	.st2{fill:#8600A1;}
</style>
<g id="Layer_2_00000056396410773772957940000001219029868798668680_">
	<g id="Layer_1-2">
		<g>
			<rect x="68.4" y="23.3" class="st0" width="32.7" height="11.3"/>
		</g>
		<g>
			<path class="st1" d="M68.4,46h32.7v9.3H80.4v13.9h16.2v9H80.4v22.4h-12V46z"/>
		</g>
		<g>
			<rect x="23.8" y="89.2" class="st2" width="33.4" height="11.3"/>
		</g>
		<g>
			<polygon class="st1" points="35.7,34.7 35.7,66.5 57,66.5 57,77.9 23.8,77.9 23.8,23.3 57,23.3 57,34.7 			"/>
		</g>
	</g>
</g>
<g>
	<path class="st1" d="M125.1,124.9H-0.2V-0.2h125.3V124.9z M4.8,119.9h115.3V4.8H4.8V119.9z"/>
</g>
<g>
	<path d="M163,61.8v-0.7c0-18.8,12.9-31.9,30.3-31.9c14.3,0,25.4,7.2,26.8,21.8h-11.8c-1.3-8.3-5.9-12.6-14.9-12.6
		c-11,0-18.2,8.6-18.2,22.5v0.7c0,14,6.7,22.3,18.2,22.3c8.6,0,14.7-4.4,16-13.2h11.3c-1.8,15-12.5,22.6-27.3,22.6
		C173.9,93.4,163,81,163,61.8z"/>
	<path d="M230.2,25.8h10.6v66.8h-10.6V25.8z"/>
	<path d="M252.7,33.4c0-3.5,2.8-6.1,6.3-6.1c3.5,0,6.3,2.6,6.3,6.1c0,3.4-2.8,6-6.3,6C255.5,39.4,252.7,36.8,252.7,33.4z
		 M253.9,46.9h10.6v45.6h-10.6V46.9z"/>
	<path d="M274.2,70.2v-0.7c0-14.1,9.7-23.6,22.7-23.6c11.3,0,21.6,6.7,21.6,23v3.1H285c0.3,8.6,4.7,13.5,12.6,13.5
		c6.4,0,9.7-2.5,10.5-7h10.2c-1.5,9.6-9.2,14.8-20.9,14.8C283.9,93.4,274.2,84.6,274.2,70.2z M308,65c-0.5-7.9-4.5-11.3-11.1-11.3
		c-6.4,0-10.6,4.3-11.7,11.3H308z"/>
	<path d="M327.9,46.9h10.6v7.2c2.2-4.5,7.2-8.2,14.7-8.2c9.2,0,15.6,5.3,15.6,17.9v28.7h-10.6V64.8c0-6.9-2.8-10-9.1-10
		c-5.9,0-10.7,3.7-10.7,10.9v26.9h-10.6V46.9z"/>
	<path d="M382.7,79.8v-25h-6.1v-7.9h6.1v-10h10.6v10h10v7.9h-10v24c0,4,1.9,5.8,5.2,5.8c2.1,0,3.7-0.3,5.1-0.9v8.4
		c-1.7,0.6-3.9,1.1-7.2,1.1C387.4,93.3,382.7,88.5,382.7,79.8z"/>
	<path d="M411.7,63.9h20.9v8.7h-20.9V63.9z"/>
	<path d="M444.8,30.2h38.7v9.2h-27.1V58h21.3v9h-21.3v25.6h-11.6V30.2z"/>
	<path d="M491,33.4c0-3.5,2.8-6.1,6.3-6.1c3.5,0,6.3,2.6,6.3,6.1c0,3.4-2.8,6-6.3,6C493.8,39.4,491,36.8,491,33.4z M492.1,46.9h10.6
		v45.6h-10.6V46.9z"/>
	<path d="M515.5,46.9h10.6v8.6c2.9-5.8,7.2-9.2,14.8-9.3v9.9c-9.2,0.1-14.8,3.1-14.8,12.7v23.7h-10.6V46.9z"/>
	<path d="M546.5,78.3h9.9c0.5,4.6,2.9,7.3,9.1,7.3c5.7,0,8.2-2,8.2-5.8c0-3.8-3.1-5.1-9.8-6.3c-12-1.9-16.5-5.3-16.5-13.9
		c0-9.2,8.6-13.7,17.1-13.7c9.3,0,16.8,3.5,17.9,13.8h-9.8c-0.9-4.2-3.2-6.1-8.1-6.1c-4.5,0-7.2,2.2-7.2,5.4c0,3.3,2.2,4.6,9.4,5.8
		c10.7,1.7,17.1,4.3,17.1,14c0,9.2-6.5,14.6-18.2,14.6C553.8,93.4,546.9,88,546.5,78.3z"/>
	<path d="M594.8,79.8v-25h-6.1v-7.9h6.1v-10h10.6v10h10v7.9h-10v24c0,4,1.9,5.8,5.2,5.8c2.1,0,3.7-0.3,5.1-0.9v8.4
		c-1.7,0.6-3.9,1.1-7.2,1.1C599.5,93.3,594.8,88.5,594.8,79.8z"/>
</g>
</svg>
