<?xml version="1.0" encoding="utf-8"?>
<!-- Generator: Adobe Illustrator 27.1.1, SVG Export Plug-In . SVG Version: 6.00 Build 0)  -->
<svg version="1.1" id="Layer_1" xmlns="http://www.w3.org/2000/svg" xmlns:xlink="http://www.w3.org/1999/xlink" x="0px" y="0px"
	 viewBox="0 0 97 38.4" style="enable-background:new 0 0 97 38.4;" xml:space="preserve">
<style type="text/css">
	.st0{fill:#4353FF;}
</style>
<path class="st0" d="M32.9,17.4c0-1.6-1.5-3.3-4.2-3.3c-3,0-6.3,2.2-6.8,6.6c-0.5,4.4,2.2,6.4,5,6.4s4.2-1.1,5.7-2.5
	c-1.3-1.6-2.9-0.9-3.2-0.7c-0.5,0.3-1.1,0.4-1.7,0.4c-1.1,0-2.2-0.5-2.2-2.5C32.4,21.2,32.9,19,32.9,17.4L32.9,17.4z M29.5,17.7
	c0,0.5-0.2,1.3-3.7,1.8c0.7-2.6,2.1-2.8,2.8-2.8c0.5,0,0.9,0.4,0.9,0.9C29.5,17.6,29.5,17.6,29.5,17.7L29.5,17.7z M17.9,18.1l-1.6,5
	l-1.1-8.7c-2.5,0-3.9,1.8-4.6,3.7l-1.9,5.1l-0.3-5c-0.1-2.3-2.3-3.7-4-3.7L6.5,27c2.6,0,4.1-1.8,4.8-3.7l1.6-4.3c0,0.2,1.1,8,1.1,8
	c2.6,0,4.1-1.7,4.8-3.5l3.7-9.1C20,14.4,18.6,16.2,17.9,18.1L17.9,18.1z M42.6,14.1c-1.6,0-2.9,0.9-3.9,2.2v0l0.9-7.6
	c-2.2,0-3.9,1.9-4.3,4.7L33.7,27c1.2,0,2.6-0.4,3.3-1.3c0.6,0.8,1.6,1.5,3,1.5c3.6,0,6.1-4.3,6.1-8.2C46.1,15.3,44.4,14.1,42.6,14.1
	L42.6,14.1z M42.2,20.6c-0.4,2.2-1.6,3.7-2.8,3.7s-1.7-0.5-1.7-0.5c0.2-2,0.4-3.1,0.8-4.2S40,17,41.1,17
	C42.1,17,42.6,18.4,42.2,20.6L42.2,20.6z M55.2,14.4h-2.5l0-0.1c0.2-1.7,0.6-2.5,1.9-2.7c0.9-0.1,1.3-0.5,1.4-1.1l0.3-1.8
	c-5.1,0-6.7,2.2-7.1,5.6l0,0.1h-0.1c-0.8,0-1.7,0.9-1.9,2.1L47.1,17h1.7l-1.4,11.9L46.9,31c0.1,0,0.1,0,0.2,0c2.4-0.1,3.9-2,4.3-4.7
	l1.1-9.3h0.8c0.8,0,1.7-0.8,1.9-2.1L55.2,14.4z M68.5,14.2c-2.9,0-5.7,2.2-6.6,5.6s0.4,7.4,4.8,7.4s6.8-4.2,6.8-7.7
	C73.5,16,71.1,14.2,68.5,14.2L68.5,14.2z M69.6,20.5c-0.2,1.5-0.8,3.9-2.7,3.9s-1.6-2.7-1.4-4c0.2-1.4,1-3.4,2.6-3.4
	C69.7,17,69.8,18.8,69.6,20.5L69.6,20.5z M88,18.1l-1.6,5c0-0.4-1.1-8.7-1.1-8.7c-2.5,0-3.9,1.8-4.6,3.7l-1.9,5.1c0-0.4-0.3-5-0.3-5
	c-0.2-2.3-2.3-3.7-4-3.7L76.5,27c2.6,0,4.1-1.8,4.8-3.7L83,19c0,0.2,1.1,8,1.1,8c2.6,0,4.1-1.7,4.8-3.5l3.7-9.1
	C90,14.4,88.7,16.2,88,18.1L88,18.1z M57.6,8.8l-2.1,17.3L55,28.2c0.1,0,0.1,0,0.2,0c2.3,0,3.9-2.1,4.2-4.6l1.2-9.9
	C61.1,10.6,59.3,8.8,57.6,8.8L57.6,8.8z"/>
</svg>
